Coordinates
version=1
nRows=13
nColumns=40
inDegrees=yes

Units are S.I. units (second, meters, Newtons, ...)
Angles are in degrees.

endheader
time	pelvis_tilt	pelvis_list	pelvis_rotation	pelvis_tx	pelvis_ty	pelvis_tz	hip_flexion_r	hip_adduction_r	hip_rotation_r	knee_angle_r	knee_angle_r_beta	ankle_angle_r	subtalar_angle_r	mtp_angle_r	hip_flexion_l	hip_adduction_l	hip_rotation_l	knee_angle_l	knee_angle_l_beta	ankle_angle_l	subtalar_angle_l	mtp_angle_l	lumbar_extension	lumbar_bending	lumbar_rotation	arm_flex_r	arm_add_r	arm_rot_r	elbow_flex_r	pro_sup_r	wrist_flex_r	wrist_dev_r	arm_flex_l	arm_add_l	arm_rot_l	elbow_flex_l	pro_sup_l	wrist_flex_l	wrist_dev_l
     34.56000000	     -4.63155288	     -4.98497394	      1.65433730	      1.12441010	      0.92778906	      0.45348241	      3.69101607	     -1.96631528	    -14.07989294	     24.11099286	     24.11099286	     15.78978362	      4.32195260	     -5.64172116	     24.16725053	     -6.00592036	     -1.41797316	     25.53038778	     25.53038778	      9.16923190	    -12.96162041	      5.40445458	     -9.13132297	      5.17131147	      3.91402875	     22.26202664	    -17.93201974	      4.82171750	     60.72369832	     45.37034531	      0.00000000	      0.00000000	     -1.10145729	    -10.62527135	     -7.01238007	     34.97406723	     46.07255994	      0.00000000	      0.00000000
     34.57371429	     -4.69715376	     -4.98816740	      1.35699952	      1.12447216	      0.92822297	      0.45066867	      5.01419346	     -2.52384717	    -13.26481937	     26.85907224	     26.85907224	     14.07415398	      2.68987652	     -9.46371548	     23.72728743	     -5.99033591	     -1.95356503	     25.46314809	     25.46314809	      9.59459878	    -12.55214976	      5.07955967	     -9.00950890	      5.06924282	      3.45946751	     21.59471262	    -17.06843781	      4.71844785	     56.98116064	     45.49667421	      0.00000000	      0.00000000	     -1.28166744	    -11.23654689	     -5.85216728	     37.62914421	     45.96965640	      0.00000000	      0.00000000
     34.58742857	     -4.62031356	     -4.89121229	      1.06392095	      1.12439500	      0.92877845	      0.44779484	      6.53688237	     -3.30097981	    -12.55972749	     30.34070868	     30.34070868	     13.26447631	      1.64124832	    -10.25733475	     23.07013123	     -5.83883466	     -2.47758272	     25.28587740	     25.28587740	     10.00128917	    -12.26483056	      4.83219179	     -9.16062644	      4.91946525	      3.43275349	     19.98433210	    -17.00532359	      4.96728489	     55.81714579	     45.51846131	      0.00000000	      0.00000000	     -0.29400956	    -11.50155920	     -5.87046770	     38.36393805	     45.99208747	      0.00000000	      0.00000000
     34.60114286	     -4.63940915	     -4.84712616	      0.75899656	      1.12409511	      0.92900975	      0.44517373	      8.37445686	     -3.93200558	    -11.61594904	     34.05723338	     34.05723338	     12.07579468	      0.10443400	    -11.20815816	     22.58322158	     -5.75910022	     -2.98920865	     25.18824518	     25.18824518	     10.35587236	    -11.97496429	      4.49857264	     -9.18103408	      4.80456201	      3.47601225	     18.31116006	    -16.92227693	      5.13079335	     54.19007218	     45.55956847	      0.00000000	      0.00000000	      0.64605321	    -11.79246175	     -5.80939946	     39.36403637	     46.00695212	      0.00000000	      0.00000000
     34.61485714	     -4.60101103	     -4.94490145	      0.49176936	      1.12368739	      0.92918673	      0.44288372	     10.18065310	     -4.14611774	    -10.29114588	     37.57803115	     37.57803115	      9.87296093	     -2.69339334	    -13.74040490	     22.09600536	     -5.85894325	     -3.48439254	     25.16005040	     25.16005040	     10.65557556	    -11.62066155	      3.64985492	     -9.22153334	      4.80179013	      3.18063525	     17.39810157	    -16.28837055	      4.75093299	     50.58234793	     45.69299907	      0.00000000	      0.00000000	      1.06967492	    -12.43730169	     -4.89385203	     41.63134674	     45.94843049	      0.00000000	      0.00000000
     34.62857143	     -4.38574229	     -4.85904269	      0.25351633	      1.12315943	      0.92950649	      0.44046373	     11.97517944	     -4.80388736	     -9.59573139	     41.47387370	     41.47387370	      8.31781644	     -3.87233936	    -14.12256171	     21.41225045	     -5.68875075	     -3.80560285	     25.12125606	     25.12125606	     10.99846256	    -11.55860870	      3.43734179	     -9.57680364	      4.66451585	      2.81993077	     15.86047184	    -16.03057953	      4.90565970	     49.50293314	     45.71496191	      0.00000000	      0.00000000	      1.99930094	    -12.91230491	     -4.89343071	     42.31655350	     45.96822887	      0.00000000	      0.00000000
     34.64228571	     -4.36782233	     -4.91569262	     -0.04010017	      1.12238760	      0.92949480	      0.43855622	     14.07171300	     -4.92312505	     -8.31982047	     45.21056663	     45.21056663	      6.16800816	     -6.50739650	    -14.76801421	     20.98556119	     -5.72441081	     -4.16261051	     25.10319729	     25.10319729	     11.15743992	    -11.49729070	      2.67218702	     -9.62397720	      4.59229509	      2.48499538	     15.01253351	    -15.32206647	      4.19611092	     45.63665410	     45.86872501	      0.00000000	      0.00000000	      2.37660519	    -13.81968314	     -3.44437567	     44.66006903	     45.88250545	      0.00000000	      0.00000000
     34.65600000	     -4.25776300	     -4.89369657	     -0.27873735	      1.12154410	      0.92954200	      0.43651853	     16.08800520	     -5.23016645	     -7.45565818	     48.89998259	     48.89998259	      4.40920886	     -8.14719118	    -14.31368755	     20.49162831	     -5.60863334	     -4.34540658	     25.13042932	     25.13042932	     11.47192679	    -11.63455043	      2.50477087	     -9.82161083	      4.52045226	      2.27446977	     13.29663617	    -15.25947709	      4.25312239	     44.38413225	     45.89826297	      0.00000000	      0.00000000	      3.50774303	    -14.25336964	     -3.42125526	     45.49232826	     45.90847243	      0.00000000	      0.00000000
     34.66971429	     -4.00919822	     -4.83082023	     -0.43803508	      1.12067326	      0.92974080	      0.43458929	     17.88502013	     -5.51788342	     -6.71068472	     52.28864829	     52.28864829	      2.71945286	     -9.63650021	    -13.70739298	     19.88593143	     -5.43803482	     -4.45854574	     25.20846949	     25.20846949	     11.85068399	    -11.71930647	      2.31684704	    -10.18912077	      4.35949745	      1.82951055	     11.67592673	    -15.13015335	      4.30884181	     43.27058032	     45.92519543	      0.00000000	      0.00000000	      4.73921632	    -14.85407932	     -3.44902760	     46.24241584	     45.93545393	      0.00000000	      0.00000000
     34.68342857	     -3.96739305	     -4.99943338	     -0.73345044	      1.11962208	      0.92985744	      0.43314135	     20.01334496	     -5.27012694	     -5.74935006	     55.63172920	     55.63172920	      2.41067430	    -10.74062933	     -8.67756447	     19.47525184	     -5.56465767	     -4.60951506	     25.20552715	     25.20552715	     12.00067247	    -11.93524600	      1.92119308	    -10.26712168	      4.47703672	      1.78438589	     10.83941913	    -14.47078675	      2.55194155	     39.00343487	     46.14130126	      0.00000000	      0.00000000	      5.45611616	    -15.90829581	     -0.98087801	     48.33266264	     45.80456072	      0.00000000	      0.00000000
     34.69714286	     -3.85659398	     -5.00264262	     -1.00416600	      1.11856632	      0.93009157	      0.43163889	     21.82321326	     -5.24812047	     -5.04616908	     58.21122668	     58.21122668	      1.00412578	    -12.10406768	     -7.88139975	     18.95071694	     -5.47921037	     -4.69787686	     25.14913415	     25.14913415	     12.33718201	    -12.09700015	      1.84865681	    -10.48747373	      4.38449222	      1.53917914	      9.11305426	    -14.50689987	      2.51806783	     37.99370683	     46.16588187	      0.00000000	      0.00000000	      6.69092099	    -16.33232775	     -1.08908911	     49.06411641	     45.84383376	      0.00000000	      0.00000000
     34.71085714	     -3.66649956	     -5.05024964	     -1.21433063	      1.11754258	      0.93056142	      0.43011177	     23.37970242	     -5.21457882	     -4.64308431	     60.28296627	     60.28296627	     -0.04683630	    -13.22022033	     -7.05327764	     18.35488814	     -5.44755672	     -4.87324460	     25.09479658	     25.09479658	     12.53313859	    -12.23096774	      1.83974415	    -10.73088181	      4.44108428	      1.20984611	      7.45300148	    -14.52849457	      2.47285284	     36.93298138	     46.19520480	      0.00000000	      0.00000000	      7.94305548	    -16.86218314	     -1.15284163	     49.80725833	     45.87637481	      0.00000000	      0.00000000
     34.72457143	     -3.52377746	     -5.24783507	     -1.50696001	      1.11641676	      0.93113544	      0.42892224	     24.96282851	     -4.88265436	     -4.24283007	     62.03223013	     62.03223013	      0.29904251	    -13.52823738	     -3.02698338	     17.78083333	     -5.60567869	     -5.01958407	     24.99883053	     24.99883053	     12.82572885	    -12.32310148	      1.81212319	    -10.99709291	      4.61067867	      1.57267991	      6.08363051	    -14.45203370	      1.22283174	     34.09043449	     46.35164567	      0.00000000	      0.00000000	      9.31682692	    -17.41735914	      0.34594145	     51.28015982	     45.82279227	      0.00000000	      0.00000000
